<svg xmlns="http://www.w3.org/2000/svg" xmlns:xlink="http://www.w3.org/1999/xlink" width="24" height="24" viewBox="0 0 24 24">
    <defs>
        <path id="a" d="M15.864 14.32h-.813l-.288-.277A6.66 6.66 0 0 0 16.38 9.69a6.69 6.69 0 1 0-6.69 6.69 6.66 6.66 0 0 0 4.354-1.617l.278.288v.813L19.467 21 21 19.467l-5.136-5.146zm-6.174 0a4.625 4.625 0 0 1-4.632-4.63A4.625 4.625 0 0 1 9.69 5.058a4.625 4.625 0 0 1 4.63 4.632 4.625 4.625 0 0 1-4.63 4.63z"/>
    </defs>
    <g fill="none" fill-rule="evenodd">
        <path d="M0 0h24v24H0z"/>
        <mask id="b" fill="#fff">
            <use xlink:href="#a"/>
        </mask>
        <use fill="#8F9DB4" fill-rule="nonzero" xlink:href="#a"/>
        <g fill="#8f9db4" mask="url(#b)">
            <path d="M0 0h24v24H0z"/>
        </g>
    </g>
</svg>
