<svg xmlns="http://www.w3.org/2000/svg" xmlns:xlink="http://www.w3.org/1999/xlink" width="24" height="24" viewBox="0 0 24 24">
    <defs>
        <path id="a" d="M15.02 18.33c-.02-1.33-.826-1.145-1.57-1.145h-.826v-2.47a.827.827 0 0 0-.827-.823H6.84v-1.647H8.49c.455 0 .827-.37.827-.823V9.776h1.653c.909 0 1.653-.741 1.653-1.647V6.038a8.217 8.217 0 0 0-2.48-.379c-4.562 0-8.264 3.688-8.264 8.233s3.702 8.233 8.264 8.233c4.562 0 4.876-3.797 4.876-3.795zm-5.702 2.09c-3.265-.403-5.785-3.169-5.785-6.528 0-.51.066-.996.173-1.474l3.959 3.944v.823c0 .906.744 1.647 1.653 1.647v1.589zm8.907-11.193c2.084.54 4.316 1.427 4.316 4.025 0 1.875-1.423 2.909-3.214 3.247v1.967h-2.755V16.48c-1.763-.375-3.269-1.5-3.379-3.504h2.02c.101 1.08.845 1.921 2.737 1.921 2.029 0 2.479-1.006 2.479-1.637 0-.85-.46-1.656-2.755-2.205-2.562-.613-4.316-1.665-4.316-3.778 0-1.765 1.433-2.918 3.214-3.302V2h2.755v2.003c1.92.467 2.883 1.912 2.948 3.486h-2.03c-.055-1.144-.66-1.921-2.295-1.921-1.552 0-2.48.695-2.48 1.692 0 .869.67 1.427 2.755 1.967z"/>
    </defs>
    <g fill="none" fill-rule="evenodd">
        <path d="M0 0h24v24H0z"/>
        <mask id="b" fill="#fff">
            <use xlink:href="#a"/>
        </mask>
        <use fill="#8F9DB4" fill-rule="nonzero" xlink:href="#a"/>
        <g fill="#051830" mask="url(#b)">
            <path d="M0 0h24v24H0z"/>
        </g>
    </g>
</svg>
