<svg xmlns="http://www.w3.org/2000/svg" xmlns:xlink="http://www.w3.org/1999/xlink" width="24" height="24" viewBox="0 0 24 24">
    <defs>
        <path id="a" d="M7.834 14.482H3.321a.321.321 0 0 0-.321.322v1.84c0 .177.144.32.321.32h4.513c.178 0 .322.145.322.322v2.644a.321.321 0 0 0 .545.231l4.346-4.206a.321.321 0 0 0 0-.462l-4.346-4.207a.321.321 0 0 0-.545.231v2.644a.321.321 0 0 1-.322.321zm8.01-1.999V9.839c0-.178.144-.321.322-.321h4.513A.321.321 0 0 0 21 9.196v-1.84a.321.321 0 0 0-.321-.32h-4.513a.321.321 0 0 1-.322-.322V4.07a.321.321 0 0 0-.545-.231l-4.346 4.206a.321.321 0 0 0 0 .462l4.346 4.207a.321.321 0 0 0 .545-.231z"/>
    </defs>
    <g fill="none" fill-rule="evenodd">
        <path d="M0 0h24v24H0z"/>
        <mask id="b" fill="#fff">
            <use xlink:href="#a"/>
        </mask>
        <use fill="#8F9DB4" fill-rule="nonzero" xlink:href="#a"/>
        <g fill="#051830" mask="url(#b)">
            <path d="M0 0h24v24H0z"/>
        </g>
    </g>
</svg>
