<svg xmlns="http://www.w3.org/2000/svg" xmlns:xlink="http://www.w3.org/1999/xlink" width="24" height="24" viewBox="0 0 24 24">
    <defs>
        <path id="a" d="M18.877 12.882c.037-.288.064-.576.064-.882 0-.306-.027-.594-.064-.882l1.952-1.485a.446.446 0 0 0 .11-.576l-1.85-3.114c-.11-.198-.36-.27-.564-.198l-2.304.9c-.481-.36-1-.657-1.563-.882l-.352-2.385A.447.447 0 0 0 13.853 3h-3.701a.447.447 0 0 0-.454.378l-.351 2.385a7.16 7.16 0 0 0-1.564.882l-2.304-.9a.457.457 0 0 0-.564.198l-1.85 3.114a.436.436 0 0 0 .11.576l1.952 1.485a6.946 6.946 0 0 0-.064.882c0 .297.027.594.064.882l-1.952 1.485a.446.446 0 0 0-.11.576l1.85 3.114c.11.198.36.27.564.198l2.304-.9c.481.36 1 .657 1.564.882l.351 2.385a.447.447 0 0 0 .454.378h3.7a.447.447 0 0 0 .454-.378l.352-2.385a7.16 7.16 0 0 0 1.563-.882l2.304.9c.213.081.453 0 .564-.198l1.85-3.114a.446.446 0 0 0-.11-.576l-1.952-1.485zm-6.875 2.268c-1.786 0-3.238-1.413-3.238-3.15 0-1.737 1.452-3.15 3.238-3.15S15.24 10.263 15.24 12c0 1.737-1.452 3.15-3.238 3.15z"/>
    </defs>
    <g fill="none" fill-rule="evenodd">
        <path d="M0 0h24v24H0z"/>
        <mask id="b" fill="#fff">
            <use xlink:href="#a"/>
        </mask>
        <use fill="#000" fill-rule="nonzero" xlink:href="#a"/>
        <g fill="#051830" mask="url(#b)">
            <path d="M0 0h24v24H0z"/>
        </g>
    </g>
</svg>
